<svg width="82" height="82" viewBox="0 0 82 82" fill="none" xmlns="http://www.w3.org/2000/svg">
  <defs>
    <linearGradient id="gearGradient" x1="14" y1="14" x2="68" y2="68" gradientUnits="userSpaceOnUse">
      <stop offset="0" stop-color="#38BDF8"/>
      <stop offset="1" stop-color="#14F1FF"/>
    </linearGradient>
    <filter id="gearGlow" x="-38" y="-38" width="158" height="158" filterUnits="userSpaceOnUse" color-interpolation-filters="sRGB">
      <feGaussianBlur stdDeviation="16" result="blur"/>
      <feMerge>
        <feMergeNode in="blur"/>
        <feMergeNode in="SourceGraphic"/>
      </feMerge>
    </filter>
  </defs>
  <g filter="url(#gearGlow)" opacity="0.95">
    <path d="M41 16c1.2 0 2.4.08 3.6.22l2.5-5.66 7.9 3.42-1.5 6.05c1.9 1.1 3.7 2.42 5.3 3.96l5.7-2.13 4.2 7.24-4.7 4.2c.6 2 .9 4.12.9 6.3s-.3 4.3-.9 6.3l4.7 4.2-4.2 7.24-5.7-2.13c-1.6 1.54-3.4 2.86-5.3 3.96l1.5 6.05-7.9 3.42-2.5-5.66c-1.2.14-2.4.22-3.6.22s-2.4-.08-3.6-.22l-2.5 5.66-7.9-3.42 1.5-6.05c-1.9-1.1-3.7-2.42-5.3-3.96l-5.7 2.13-4.2-7.24 4.7-4.2c-.6-2-.9-4.12-.9-6.3s.3-4.3.9-6.3l-4.7-4.2 4.2-7.24 5.7 2.13c1.6-1.54 3.4-2.86 5.3-3.96l-1.5-6.05 7.9-3.42 2.5 5.66c1.2-.14 2.4-.22 3.6-.22Zm0 15.8c-7 0-12.7 5.7-12.7 12.7 0 7.02 5.7 12.7 12.7 12.7 7.02 0 12.7-5.68 12.7-12.7 0-7-5.68-12.7-12.7-12.7Z" fill="url(#gearGradient)"/>
  </g>
</svg>
