<svg width="76" height="76" viewBox="0 0 76 76" fill="none" xmlns="http://www.w3.org/2000/svg">
  <defs>
    <linearGradient id="pythonGradient" x1="18" y1="12" x2="60" y2="64" gradientUnits="userSpaceOnUse">
      <stop offset="0" stop-color="#3B82F6"/>
      <stop offset="1" stop-color="#8B5CF6"/>
    </linearGradient>
    <filter id="pythonGlow" x="-36" y="-36" width="148" height="148" filterUnits="userSpaceOnUse" color-interpolation-filters="sRGB">
      <feGaussianBlur stdDeviation="16" result="blur"/>
      <feMerge>
        <feMergeNode in="blur"/>
        <feMergeNode in="SourceGraphic"/>
      </feMerge>
    </filter>
  </defs>
  <g filter="url(#pythonGlow)" opacity="0.95">
    <path d="M41.5 10h-7.2c-8.9 0-13.3 4.6-13.3 13.8v10.4c0 8 2.8 12.2 8.4 12.2h10.4c1.8 0 3.2 1.5 3.2 3.4V57c0 1.6 1.3 2.9 2.9 2.9h6.9c8.9 0 13.3-4.6 13.3-13.8V36.1c0-8-2.8-12.2-8.4-12.2H47.3c-1.8 0-3.2-1.5-3.2-3.4V13c0-1.6-1.3-2.9-2.9-2.9Zm-5.1 8.8c1.8 0 3.3 1.5 3.3 3.3s-1.5 3.3-3.3 3.3-3.3-1.5-3.3-3.3 1.5-3.3 3.3-3.3Zm9.3 32.4c1.8 0 3.3 1.5 3.3 3.3s-1.5 3.3-3.3 3.3-3.3-1.5-3.3-3.3 1.5-3.3 3.3-3.3Z" fill="url(#pythonGradient)"/>
  </g>
</svg>
